<svg width="16" height="8" viewBox="0 0 16 8" fill="#ffffff" xmlns="http://www.w3.org/2000/svg">
<rect width="16" height="8" fill="#ffffff"/>
<path d="M320 8C317.496 8 316.188 6.8 315.13 5.83478C314.184 4.97391 313.489 4.34783 312.014 4.34783C310.511 4.34783 309.843 4.97391 308.897 5.83478C307.84 6.8 306.532 8 304.028 8C301.523 8 300.216 6.8 299.158 5.83478C298.212 4.97391 297.517 4.34783 296.042 4.34783C294.567 4.34783 293.871 4.97391 292.925 5.83478C291.868 6.8 290.56 8 288.056 8C285.551 8 284.243 6.8 283.186 5.83478C282.24 4.97391 281.544 4.34783 280.07 4.34783C278.567 4.34783 277.899 4.97391 276.953 5.83478C275.896 6.8 274.588 8 272.083 8C269.579 8 268.271 6.8 267.214 5.83478C266.268 4.97391 265.572 4.34783 264.097 4.34783C262.595 4.34783 261.927 4.97391 260.981 5.83478C259.812 6.8 258.504 8 256 8C253.496 8 252.188 6.8 251.13 5.83478C250.184 4.97391 249.489 4.34783 248.014 4.34783C246.511 4.34783 245.843 4.97391 244.897 5.83478C243.84 6.8 242.532 8 240.028 8C237.523 8 236.216 6.8 235.158 5.83478C234.212 4.97391 233.517 4.34783 232.042 4.34783C230.539 4.34783 229.871 4.97391 228.925 5.83478C227.812 6.8 226.504 8 224 8C221.496 8 220.188 6.8 219.13 5.83478C218.184 4.97391 217.489 4.34783 216.014 4.34783C214.511 4.34783 213.843 4.97391 212.897 5.83478C211.84 6.8 210.532 8 208.028 8C205.523 8 204.216 6.8 203.158 5.83478C202.212 4.97391 201.517 4.34783 200.042 4.34783C198.567 4.34783 197.871 4.97391 196.925 5.83478C195.84 6.8 194.504 8 192 8C189.496 8 188.188 6.8 187.13 5.83478C186.184 4.97391 185.489 4.34783 184.014 4.34783C182.511 4.34783 181.843 4.97391 180.897 5.83478C179.84 6.8 178.532 8 176.028 8C173.523 8 172.216 6.8 171.158 5.83478C170.212 4.97391 169.517 4.34783 168.042 4.34783C166.539 4.34783 165.871 4.97391 164.925 5.83478C163.868 6.8 162.56 8 160.056 8C157.551 8 156.243 6.8 155.186 5.83478C154.24 4.97391 153.544 4.34783 152.07 4.34783C150.595 4.34783 149.899 4.97391 148.953 5.83478C147.896 6.8 146.588 8 144.083 8C141.579 8 140.271 6.8 139.214 5.83478C138.268 4.97391 137.572 4.34783 136.097 4.34783C134.595 4.34783 133.927 4.97391 132.981 5.83478C131.923 6.8 130.616 8 128.111 8C125.607 8 124.299 6.8 123.242 5.83478C122.296 4.97391 121.6 4.34783 120.125 4.34783C118.623 4.34783 117.955 4.97391 117.009 5.83478C115.951 6.8 114.643 8 112.139 8C109.635 8 108.327 6.8 107.27 5.83478C106.323 4.97391 105.628 4.34783 104.153 4.34783C102.65 4.34783 101.983 4.97391 101.037 5.83478C99.9791 6.8 98.6713 8 96.167 8C93.6626 8 92.3548 6.8 91.2974 5.83478C90.3513 4.97391 89.6556 4.34783 88.1809 4.34783C86.7061 4.34783 86.0104 4.97391 85.0643 5.83478C84.007 6.8 82.6991 8 80.1948 8C77.6904 8 76.3826 6.8 75.3252 5.83478C74.3791 4.97391 73.6835 4.34783 72.2087 4.34783C70.7061 4.34783 70.0383 4.97391 69.0922 5.83478C68.0348 6.8 66.727 8 64.2226 8C61.7183 8 60.4104 6.8 59.353 5.83478C58.407 4.97391 57.7113 4.34783 56.2365 4.34783C54.7339 4.34783 54.0661 4.97391 53.12 5.83478C52.0626 6.8 50.7548 8 48.2504 8C45.7461 8 44.4383 6.8 43.3809 5.83478C42.4348 4.97391 41.7391 4.34783 40.2643 4.34783C38.7617 4.34783 38.0939 4.97391 37.1478 5.83478C35.84 6.8 34.5043 8 32 8C29.4957 8 28.1878 6.8 27.1304 5.83478C26.1843 4.97391 25.4887 4.34783 24.0139 4.34783C22.5113 4.34783 21.8435 4.97391 20.8974 5.83478C19.84 6.8 18.5322 8 16.0278 8C13.5235 8 12.2157 6.8 11.1583 5.83478C10.1843 4.97391 9.4887 4.34783 8.01391 4.34783C6.5113 4.34783 5.84348 4.97391 4.89739 5.83478C3.81217 6.8 2.50435 8 0 8V5.65217C1.50261 5.65217 2.17043 5.02609 3.11652 4.16522C4.17391 3.2 5.48174 2 8.01391 2C10.5183 2 11.8261 3.2 12.8835 4.16522C13.8296 5.02609 14.5252 5.65217 16 5.65217C17.5026 5.65217 18.1704 5.02609 19.1165 4.16522C20.1739 3.2 21.5096 2 24.0139 2C26.5183 2 27.8261 3.2 28.8835 4.16522C29.8296 5.02609 30.5252 5.65217 32 5.65217C33.5026 5.65217 34.1704 5.02609 35.1165 4.16522C36.1739 3.2 37.4817 2 39.9861 2C42.4904 2 43.7983 3.2 44.8556 4.16522C45.8017 5.02609 46.4974 5.65217 47.9722 5.65217C49.4748 5.65217 50.1426 5.02609 51.0887 4.16522C52.1461 3.2 53.4539 2 55.9583 2C58.4626 2 59.7704 3.2 60.8278 4.16522C61.7739 5.02609 62.4696 5.65217 63.9443 5.65217C65.447 5.65217 66.1148 5.02609 67.0609 4.16522C68.1183 3.2 69.4261 2 71.9304 2C74.4348 2 75.7426 3.2 76.8 4.16522C77.7461 5.02609 78.4417 5.65217 79.9165 5.65217C81.4191 5.65217 82.087 5.02609 83.033 4.16522C84.0904 3.2 85.3983 2 87.9026 2C90.407 2 91.7148 3.2 92.7722 4.16522C93.7183 5.02609 94.4139 5.65217 95.8887 5.65217C97.3913 5.65217 98.0591 5.02609 99.0052 4.16522C100.063 3.2 101.37 2 103.875 2C106.379 2 107.687 3.2 108.744 4.16522C109.69 5.02609 110.386 5.65217 111.861 5.65217C113.336 5.65217 114.031 5.02609 114.977 4.16522C116.035 3.2 117.343 2 119.847 2C122.351 2 123.659 3.2 124.717 4.16522C125.663 5.02609 126.358 5.65217 127.833 5.65217C129.336 5.65217 130.003 5.02609 130.95 4.16522C132.007 3.2 133.315 2 135.819 2C138.323 2 139.631 3.2 140.689 4.16522C141.635 5.02609 142.33 5.65217 143.805 5.65217C145.308 5.65217 145.976 5.02609 146.922 4.16522C147.979 3.2 149.287 2 151.791 2C154.296 2 155.603 3.2 156.661 4.16522C157.607 5.02609 158.303 5.65217 159.777 5.65217C161.28 5.65217 161.948 5.02609 162.894 4.16522C163.951 3.2 165.259 2 167.763 2C170.268 2 171.576 3.2 172.633 4.16522C173.579 5.02609 174.275 5.65217 175.75 5.65217C177.252 5.65217 177.92 5.02609 178.866 4.16522C179.923 3.2 181.231 2 183.736 2C186.24 2 187.548 3.2 188.605 4.16522C189.551 5.02609 190.247 5.65217 191.722 5.65217C193.224 5.65217 193.892 5.02609 194.838 4.16522C195.896 3.2 197.203 2 199.708 2C202.212 2 203.52 3.2 204.577 4.16522C205.523 5.02609 206.219 5.65217 207.694 5.65217C209.197 5.65217 209.864 5.02609 210.81 4.16522C211.868 3.2 213.176 2 215.68 2C218.184 2 219.492 3.2 220.55 4.16522C221.496 5.02609 222.191 5.65217 223.666 5.65217C225.169 5.65217 225.837 5.02609 226.783 4.16522C228.174 3.2 229.482 2 232.014 2C234.518 2 235.826 3.2 236.883 4.16522C237.83 5.02609 238.525 5.65217 240 5.65217C241.475 5.65217 242.17 5.02609 243.117 4.16522C244.174 3.2 245.482 2 247.986 2C250.49 2 251.798 3.2 252.856 4.16522C253.802 5.02609 254.497 5.65217 255.972 5.65217C257.447 5.65217 258.143 5.02609 259.089 4.16522C260.174 3.2 261.482 2 264.014 2C266.546 2 267.826 3.2 268.883 4.16522C269.83 5.02609 270.525 5.65217 272 5.65217C273.475 5.65217 274.17 5.02609 275.117 4.16522C276.174 3.2 277.482 2 279.986 2C282.49 2 283.798 3.2 284.856 4.16522C285.802 5.02609 286.497 5.65217 287.972 5.65217C289.475 5.65217 290.143 5.02609 291.089 4.16522C292.146 3.2 293.454 2 295.958 2C298.463 2 299.77 3.2 300.828 4.16522C301.774 5.02609 302.47 5.65217 303.944 5.65217C305.419 5.65217 306.115 5.02609 307.061 4.16522C308.118 3.2 309.426 2 311.93 2C314.435 2 315.743 3.2 316.8 4.16522C317.746 5.02609 318.442 5.65217 319.916 5.65217V8H320Z" fill="#F1F1F1"/>
</svg>
