<svg width="16" height="8" fill="#fff" xmlns="http://www.w3.org/2000/svg"><path d="M0 0h16v8H0z"/><path d="M320 8c-2.504 0-3.812-1.2-4.87-2.165-.946-.861-1.641-1.487-3.116-1.487-1.503 0-2.171.626-3.117 1.487C307.84 6.8 306.532 8 304.028 8c-2.505 0-3.812-1.2-4.87-2.165-.946-.861-1.641-1.487-3.116-1.487s-2.171.626-3.117 1.487C291.868 6.8 290.56 8 288.056 8c-2.505 0-3.813-1.2-4.87-2.165-.946-.861-1.642-1.487-3.116-1.487-1.503 0-2.171.626-3.117 1.487C275.896 6.8 274.588 8 272.083 8c-2.504 0-3.812-1.2-4.869-2.165-.946-.861-1.642-1.487-3.117-1.487-1.502 0-2.17.626-3.116 1.487C259.812 6.8 258.504 8 256 8s-3.812-1.2-4.87-2.165c-.946-.861-1.641-1.487-3.116-1.487-1.503 0-2.171.626-3.117 1.487C243.84 6.8 242.532 8 240.028 8c-2.505 0-3.812-1.2-4.87-2.165-.946-.861-1.641-1.487-3.116-1.487-1.503 0-2.171.626-3.117 1.487C227.812 6.8 226.504 8 224 8s-3.812-1.2-4.87-2.165c-.946-.861-1.641-1.487-3.116-1.487-1.503 0-2.171.626-3.117 1.487C211.84 6.8 210.532 8 208.028 8c-2.505 0-3.812-1.2-4.87-2.165-.946-.861-1.641-1.487-3.116-1.487s-2.171.626-3.117 1.487C195.84 6.8 194.504 8 192 8s-3.812-1.2-4.87-2.165c-.946-.861-1.641-1.487-3.116-1.487-1.503 0-2.171.626-3.117 1.487C179.84 6.8 178.532 8 176.028 8c-2.505 0-3.812-1.2-4.87-2.165-.946-.861-1.641-1.487-3.116-1.487-1.503 0-2.171.626-3.117 1.487C163.868 6.8 162.56 8 160.056 8c-2.505 0-3.813-1.2-4.87-2.165-.946-.861-1.642-1.487-3.116-1.487-1.475 0-2.171.626-3.117 1.487C147.896 6.8 146.588 8 144.083 8c-2.504 0-3.812-1.2-4.869-2.165-.946-.861-1.642-1.487-3.117-1.487-1.502 0-2.17.626-3.116 1.487C131.923 6.8 130.616 8 128.111 8c-2.504 0-3.812-1.2-4.869-2.165-.946-.861-1.642-1.487-3.117-1.487-1.502 0-2.17.626-3.116 1.487C115.951 6.8 114.643 8 112.139 8s-3.812-1.2-4.869-2.165c-.947-.861-1.642-1.487-3.117-1.487-1.503 0-2.17.626-3.116 1.487C99.979 6.8 98.671 8 96.167 8s-3.812-1.2-4.87-2.165c-.946-.861-1.641-1.487-3.116-1.487s-2.17.626-3.117 1.487C84.007 6.8 82.7 8 80.194 8c-2.504 0-3.811-1.2-4.869-2.165-.946-.861-1.642-1.487-3.116-1.487-1.503 0-2.17.626-3.117 1.487C68.035 6.8 66.727 8 64.222 8c-2.504 0-3.812-1.2-4.869-2.165-.946-.861-1.642-1.487-3.117-1.487-1.502 0-2.17.626-3.116 1.487C52.063 6.8 50.755 8 48.25 8c-2.504 0-3.812-1.2-4.87-2.165-.945-.861-1.64-1.487-3.116-1.487-1.502 0-2.17.626-3.116 1.487C35.84 6.8 34.504 8 32 8c-2.504 0-3.812-1.2-4.87-2.165-.946-.861-1.641-1.487-3.116-1.487-1.503 0-2.17.626-3.117 1.487C19.84 6.8 18.532 8 16.027 8c-2.504 0-3.811-1.2-4.869-2.165-.974-.861-1.67-1.487-3.144-1.487-1.503 0-2.17.626-3.117 1.487C3.812 6.8 2.504 8 0 8V5.652c1.503 0 2.17-.626 3.117-1.487C4.174 3.2 5.482 2 8.014 2c2.504 0 3.812 1.2 4.87 2.165.946.861 1.641 1.487 3.116 1.487 1.503 0 2.17-.626 3.116-1.487C20.174 3.2 21.51 2 24.014 2c2.504 0 3.812 1.2 4.87 2.165.946.861 1.641 1.487 3.116 1.487 1.503 0 2.17-.626 3.117-1.487C36.174 3.2 37.482 2 39.986 2c2.503 0 3.811 1.2 4.869 2.165.946.861 1.641 1.487 3.116 1.487 1.503 0 2.17-.626 3.117-1.487C52.146 3.2 53.454 2 55.959 2c2.504 0 3.811 1.2 4.869 2.165.946.861 1.642 1.487 3.116 1.487 1.503 0 2.17-.626 3.117-1.487C68.118 3.2 69.426 2 71.93 2c2.504 0 3.812 1.2 4.869 2.165.946.861 1.642 1.487 3.117 1.487 1.502 0 2.17-.626 3.116-1.487C84.09 3.2 85.398 2 87.903 2c2.504 0 3.812 1.2 4.87 2.165.945.861 1.64 1.487 3.116 1.487 1.502 0 2.17-.626 3.116-1.487C100.063 3.2 101.37 2 103.875 2c2.504 0 3.812 1.2 4.869 2.165.946.861 1.642 1.487 3.117 1.487s2.17-.626 3.116-1.487C116.035 3.2 117.343 2 119.847 2s3.812 1.2 4.87 2.165c.946.861 1.641 1.487 3.116 1.487 1.503 0 2.17-.626 3.117-1.487C132.007 3.2 133.315 2 135.819 2c2.504 0 3.812 1.2 4.87 2.165.946.861 1.641 1.487 3.116 1.487 1.503 0 2.171-.626 3.117-1.487C147.979 3.2 149.287 2 151.791 2c2.505 0 3.812 1.2 4.87 2.165.946.861 1.642 1.487 3.116 1.487 1.503 0 2.171-.626 3.117-1.487C163.951 3.2 165.259 2 167.763 2c2.505 0 3.813 1.2 4.87 2.165.946.861 1.642 1.487 3.117 1.487 1.502 0 2.17-.626 3.116-1.487C179.923 3.2 181.231 2 183.736 2c2.504 0 3.812 1.2 4.869 2.165.946.861 1.642 1.487 3.117 1.487 1.502 0 2.17-.626 3.116-1.487C195.896 3.2 197.203 2 199.708 2c2.504 0 3.812 1.2 4.869 2.165.946.861 1.642 1.487 3.117 1.487 1.503 0 2.17-.626 3.116-1.487C211.868 3.2 213.176 2 215.68 2s3.812 1.2 4.87 2.165c.946.861 1.641 1.487 3.116 1.487 1.503 0 2.171-.626 3.117-1.487C228.174 3.2 229.482 2 232.014 2c2.504 0 3.812 1.2 4.869 2.165.947.861 1.642 1.487 3.117 1.487s2.17-.626 3.117-1.487C244.174 3.2 245.482 2 247.986 2c2.504 0 3.812 1.2 4.87 2.165.946.861 1.641 1.487 3.116 1.487s2.171-.626 3.117-1.487C260.174 3.2 261.482 2 264.014 2s3.812 1.2 4.869 2.165c.947.861 1.642 1.487 3.117 1.487s2.17-.626 3.117-1.487C276.174 3.2 277.482 2 279.986 2c2.504 0 3.812 1.2 4.87 2.165.946.861 1.641 1.487 3.116 1.487 1.503 0 2.171-.626 3.117-1.487C292.146 3.2 293.454 2 295.958 2c2.505 0 3.812 1.2 4.87 2.165.946.861 1.642 1.487 3.116 1.487 1.475 0 2.171-.626 3.117-1.487C308.118 3.2 309.426 2 311.93 2c2.505 0 3.813 1.2 4.87 2.165.946.861 1.642 1.487 3.116 1.487V8H320Z" fill="#F1F1F1"/></svg>